HIERARCHY
ROOT Hips
{
	OFFSET 54.858501 -6.606414 84.169998
	CHANNELS 6 Xposition Yposition Zposition Xrotation Yrotation Zrotation
	JOINT spine
	{
		OFFSET 0.000000 -0.342408 5.954376
		CHANNELS 3 Xrotation Yrotation Zrotation
		JOINT spine1
		{
			OFFSET 0.000000 -0.000001 8.856018
			CHANNELS 3 Xrotation Yrotation Zrotation
			JOINT spine2
			{
				OFFSET 0.000000 -0.000001 8.485672
				CHANNELS 3 Xrotation Yrotation Zrotation
				JOINT Neck
				{
					OFFSET 0.000000 -1.038703 21.786301
					CHANNELS 3 Xrotation Yrotation Zrotation
					JOINT Head
					{
						OFFSET 0.000000 -0.000001 6.582199
						CHANNELS 3 Xrotation Yrotation Zrotation
						End Site
						{
							OFFSET 0.000000 5.254357 15.932602
						}
					}
				}
				JOINT RightShoulder
				{
					OFFSET -3.573071 0.497524 9.163864
					CHANNELS 3 Xrotation Yrotation Zrotation
					JOINT RightArm
					{
						OFFSET 0.000000 -0.000002 12.019196
						CHANNELS 3 Xrotation Yrotation Zrotation
						JOINT RightArmRoll
						{
							OFFSET 0.000000 -0.000001 6.067551
							CHANNELS 3 Xrotation Yrotation Zrotation
							JOINT RightForeArm
							{
								OFFSET 0.000000 -0.000003 17.672607
								CHANNELS 3 Xrotation Yrotation Zrotation
								JOINT RightForeArmRoll
								{
									OFFSET 0.000000 -0.000001 6.808716
									CHANNELS 3 Xrotation Yrotation Zrotation
									JOINT RightHand
									{
										OFFSET 0.000000 -0.000002 13.663605
										CHANNELS 3 Xrotation Yrotation Zrotation
										End Site
										{
											OFFSET 0.000000 0.000000 0.100006
										}
									}
								}
							}
						}
					}
				}
				JOINT LeftShoulder
				{
					OFFSET 3.573071 0.497524 9.163864
					CHANNELS 3 Xrotation Yrotation Zrotation
					JOINT LeftArm
					{
						OFFSET 0.000000 -0.000002 12.019196
						CHANNELS 3 Xrotation Yrotation Zrotation
						JOINT LeftArmRoll
						{
							OFFSET 0.000000 -0.000001 6.067551
							CHANNELS 3 Xrotation Yrotation Zrotation
							JOINT LeftForeArm
							{
								OFFSET 0.000000 -0.000003 17.672607
								CHANNELS 3 Xrotation Yrotation Zrotation
								JOINT LeftForeArmRoll
								{
									OFFSET 0.000000 -0.000001 6.808716
									CHANNELS 3 Xrotation Yrotation Zrotation
									JOINT LeftHand
									{
										OFFSET 0.000000 -0.000002 13.663605
										CHANNELS 3 Xrotation Yrotation Zrotation
										End Site
										{
											OFFSET 0.000000 0.000000 0.100006
										}
									}
								}
							}
						}
					}
				}
			}
		}
	}
	JOINT RightUpLeg
	{
		OFFSET -5.277740 0.811859 -0.967796
		CHANNELS 3 Xrotation Yrotation Zrotation
		JOINT RightUpLegRoll
		{
			OFFSET 0.000000 -0.000003 16.021400
			CHANNELS 3 Xrotation Yrotation Zrotation
			JOINT RightLeg
			{
				OFFSET 0.000000 0.000003 -19.840103
				CHANNELS 3 Xrotation Yrotation Zrotation
				JOINT RightLegRoll
				{
					OFFSET 0.000000 -0.000003 19.904999
					CHANNELS 3 Xrotation Yrotation Zrotation
					JOINT RightFoot
					{
						OFFSET 0.000000 -0.000003 16.567497
						CHANNELS 3 Xrotation Yrotation Zrotation
						JOINT RightToeBase
						{
							OFFSET 0.000000 -0.000002 13.849602
							CHANNELS 3 Xrotation Yrotation Zrotation
							End Site
							{
								OFFSET 0.005871 0.773116 6.707275
							}
						}
					}
				}
			}
		}
	}
	JOINT LeftUpLeg
	{
		OFFSET 5.277740 0.811859 -0.967796
		CHANNELS 3 Xrotation Yrotation Zrotation
		JOINT LeftUpLegRoll
		{
			OFFSET 0.000000 -0.000003 16.021500
			CHANNELS 3 Xrotation Yrotation Zrotation
			JOINT LeftLeg
			{
				OFFSET 0.000000 -0.000003 19.840004
				CHANNELS 3 Xrotation Yrotation Zrotation
				JOINT LeftLegRoll
				{
					OFFSET 0.000000 -0.000003 20.089005
					CHANNELS 3 Xrotation Yrotation Zrotation
					JOINT LeftFoot
					{
						OFFSET 0.000000 -0.000002 16.383499
						CHANNELS 3 Xrotation Yrotation Zrotation
						JOINT LeftToeBase
						{
							OFFSET 0.000000 -0.000002 13.849594
							CHANNELS 3 Xrotation Yrotation Zrotation
							End Site
							{
								OFFSET -0.026310 0.773116 6.707275
							}
						}
					}
				}
			}
		}
	}
}
MOTION
Frames: 7
Frame Time: 0.041667
53.526501 -4.255896 84.230591 -2.500902 -0.143081 0.896478 -2.025178 0.299357 0.045826 -0.046648 0.599909 0.098908 1.598468 0.601102 0.092253 20.486586 23.645493 -18.257120 -5.919317 -31.046680 -18.740106 -11.661337 -12.325805 -10.548104 -160.356900 -125.658760 -118.688716 0.000004 0.000003 -0.000003 69.347819 2.579000 -4.376524 0.000002 0.000010 -3.000000 -5.000162 -7.999921 0.000022 -70.978137 83.956207 75.817333 -94.533472 108.658713 86.128030 0.000002 0.000014 -0.000001 -0.028153 -3.640411 1.990772 -0.000005 -0.000005 3.011609 -5.000162 7.999927 -0.000014 -2.871417 -179.599510 2.626952 -179.999991 0.000005 -1.033006 170.088335 -2.710987 -0.553529 -0.000003 -0.000002 0.174796 70.927594 6.829545 2.152933 25.456957 -7.355616 0.000010 -3.422427 180.024963 0.433977 -0.000005 -0.000004 -1.027600 -10.327654 2.684183 0.516329 -0.000005 -0.000002 -0.151607 70.367771 -6.831522 -2.194749 25.456953 7.355613 -0.000001 
53.545799 -4.255066 84.229691 -2.513908 -0.132274 0.845549 -2.015118 0.296139 0.045334 -0.026530 0.591891 0.097971 1.618587 0.593075 0.091326 20.400663 23.652665 -18.252620 -5.850427 -31.034050 -18.735496 -11.684034 -12.558359 -10.610786 -160.960279 -125.274207 -119.261674 0.000001 0.000005 -0.000002 69.078252 2.588236 -4.370909 0.000003 0.000009 -3.000001 -5.000162 -7.999919 0.000021 -70.357785 83.920260 75.193669 -94.159970 108.653536 85.838990 -0.000000 0.000014 -0.000000 -0.028144 -3.640440 1.990772 -0.000004 -0.000005 3.011609 -5.000165 7.999927 -0.000015 -2.869409 -179.595521 2.631546 -179.999991 0.000005 -1.033006 170.075180 -2.714821 -0.553842 -0.000003 -0.000002 0.174823 70.929691 6.829483 2.153194 25.456959 -7.355614 0.000010 -3.402825 180.027968 0.434709 -0.000004 -0.000004 -1.027720 -10.330144 2.682558 0.515552 -0.000004 -0.000001 -0.151670 70.375093 -6.831189 -2.194940 25.456953 7.355612 -0.000000 
53.555000 -4.263093 84.228996 -2.526538 -0.121562 0.795306 -2.005046 0.293009 0.044858 -0.006443 0.583976 0.097083 1.638665 0.585151 0.090434 20.314168 23.660346 -18.248537 -5.781095 -31.021217 -18.731469 -11.705434 -12.793212 -10.670853 -161.574832 -124.893766 -119.847458 0.000003 0.000005 -0.000002 68.801390 2.597685 -4.365086 0.000002 0.000009 -2.999999 -5.000163 -7.999916 0.000021 -69.742249 83.882947 74.574929 -93.784125 108.650845 85.548563 0.000001 0.000015 0.000001 -0.028133 -3.640460 1.990774 -0.000002 -0.000005 3.011608 -5.000163 7.999928 -0.000014 -2.868730 -179.590522 2.636101 -179.999991 0.000005 -1.033007 170.060618 -2.717648 -0.555048 -0.000003 -0.000002 0.174840 70.932334 6.829422 2.153422 25.456957 -7.355617 0.000011 -3.383257 180.030959 0.435496 -0.000005 -0.000004 -1.027840 -10.332532 2.680933 0.514786 -0.000005 -0.000002 -0.151735 70.382313 -6.830850 -2.195238 25.456952 7.355613 -0.000000 
53.564499 -4.258546 84.233604 -2.538865 -0.110485 0.745677 -1.994986 0.289866 0.044406 0.013588 0.575993 0.096252 1.658695 0.577159 0.089591 20.227926 23.668308 -18.245011 -5.712156 -31.008219 -18.728063 -11.725961 -13.030535 -10.729175 -162.198237 -124.517941 -120.444553 0.000003 0.000005 0.000002 68.517418 2.607372 -4.359052 0.000002 0.000008 -3.000002 -5.000161 -7.999921 0.000021 -69.131200 83.844383 73.960731 -93.405829 108.650442 85.256477 0.000003 0.000014 -0.000001 -0.028120 -3.640480 1.990773 -0.000002 -0.000006 3.011610 -5.000165 7.999929 -0.000013 -2.868801 -179.586519 2.640330 -179.999991 0.000005 -1.033006 170.045551 -2.720483 -0.555271 -0.000003 -0.000002 0.174834 70.935073 6.829327 2.153737 25.456959 -7.355615 0.000010 -3.363967 180.032954 0.435881 -0.000005 -0.000004 -1.027960 -10.335324 2.679503 0.514084 -0.000005 -0.000002 -0.151813 70.389546 -6.830578 -2.195346 25.456950 7.355613 0.000000 
53.572498 -4.258498 84.235001 -2.550963 -0.098585 0.696587 -1.984947 0.286600 0.043987 0.033536 0.567775 0.095487 1.678643 0.568934 0.088814 20.142687 23.676291 -18.242073 -5.644404 -30.995026 -18.725399 -11.746237 -13.270406 -10.786693 -162.828240 -124.147390 -121.051224 0.000002 0.000007 0.000000 68.227135 2.617227 -4.352836 0.000002 0.000008 -3.000001 -5.000163 -7.999920 0.000021 -68.523641 83.804666 73.350050 -93.025872 108.651951 84.963448 0.000003 0.000014 -0.000001 -0.028111 -3.640500 1.990774 -0.000004 -0.000005 3.011610 -5.000162 7.999927 -0.000014 -2.869035 -179.584538 2.643858 -179.999991 0.000005 -1.034003 170.030866 -2.723320 -0.555490 -0.000004 -0.000002 0.174792 70.937525 6.829296 2.153983 25.456959 -7.355617 0.000010 -3.345248 180.033965 0.435341 -0.000005 -0.000004 -1.028100 -10.338918 2.678400 0.513483 -0.000005 -0.000002 -0.151913 70.397189 -6.830247 -2.195521 25.456950 7.355613 -0.000001 
53.588200 -4.260176 84.234398 -2.562902 -0.085400 0.647960 -1.974945 0.283107 0.043610 0.053375 0.559154 0.094797 1.698481 0.560305 0.088116 20.059169 23.684075 -18.239829 -5.578671 -30.981612 -18.723686 -11.766812 -13.513196 -10.844374 -163.462259 -123.782753 -121.665682 0.000002 0.000005 -0.000002 67.930773 2.627251 -4.346420 0.000002 0.000008 -3.000001 -5.000163 -7.999918 0.000020 -67.919183 83.763944 72.742423 -92.644713 108.655196 84.669818 0.000001 0.000014 -0.000000 -0.028104 -3.640520 1.990775 -0.000003 -0.000005 3.011609 -5.000162 7.999927 -0.000013 -2.868823 -179.583514 2.646249 -179.999991 0.000005 -1.034004 170.017561 -2.725175 -0.555470 -0.000003 -0.000002 0.174700 70.939328 6.829297 2.154171 25.456955 -7.355615 0.000011 -3.327359 180.032954 0.433417 -0.000005 -0.000004 -1.028260 -10.343919 2.677797 0.513036 -0.000005 -0.000001 -0.152042 70.405153 -6.829955 -2.195680 25.456955 7.355612 -0.000001 
53.595699 -4.267574 84.235603 -2.574762 -0.070468 0.599724 -1.965014 0.279280 0.043282 0.073081 0.549961 0.094191 1.718179 0.551105 0.087513 19.978261 23.691565 -18.238434 -5.515807 -30.968245 -18.723097 -11.788104 -13.758982 -10.903110 -164.097467 -123.424428 -122.285986 0.000003 0.000005 0.000001 67.628797 2.637440 -4.339812 0.000002 0.000008 -3.000000 -5.000159 -7.999921 0.000021 -67.317422 83.722335 72.137412 -92.262455 108.659970 84.375560 0.000002 0.000014 -0.000001 -0.028092 -3.640539 1.990775 -0.000003 -0.000005 3.011609 -5.000160 7.999927 -0.000015 -2.867600 -179.586519 2.647258 -179.999991 0.000005 -1.034004 170.006537 -2.727046 -0.555343 -0.000003 -0.000002 0.174546 70.940066 6.829299 2.154527 25.456955 -7.355616 0.000011 -3.310576 180.028965 0.429648 -0.000004 -0.000004 -1.028460 -10.351028 2.677845 0.512799 -0.000005 -0.000001 -0.152210 70.413854 -6.829638 -2.195890 25.456952 7.355613 -0.000001 
